<svg width="32" height="33" viewBox="0 0 32 33" fill="none" xmlns="http://www.w3.org/2000/svg">
<path d="M0 0H20V2.0625H2V4.125H0V0Z" fill="#1A1A1A"/>
<path d="M2 2.0625H20V4.125H22V8.25H24V14.4375H10V8.25H20V6.1875H18V4.125H8V6.1875H6V4.125H2V2.0625Z" fill="white"/>
<path d="M20 2.0625H22V4.125H20V2.0625Z" fill="#1A1A1A"/>
<path d="M2 4.125H6V6.1875H2V4.125Z" fill="#1A1A1A"/>
<path d="M8 4.125H18V6.1875H20V8.25H10V6.1875H8V4.125Z" fill="#1A1A1A"/>
<path d="M22 4.125H24V8.25H22V4.125Z" fill="#1A1A1A"/>
<path d="M6 6.1875H8V8.25H6V6.1875Z" fill="#1A1A1A"/>
<path d="M8 6.1875H10V8.25H8V6.1875Z" fill="white"/>
<path d="M8 8.25H10V14.4375H24V8.25H26V12.375H28V14.4375H26V16.5H8V14.4375H4V12.375H8V8.25Z" fill="#1A1A1A"/>
<path d="M12 10.3125H22V12.375H12V10.3125Z" fill="#1A1A1A"/>
<path d="M2 14.4375H4V16.5H2V14.4375Z" fill="#1A1A1A"/>
<path d="M4 14.4375H8V16.5H26V14.4375H28V16.5H30V30.9375H2V16.5H4V14.4375Z" fill="white"/>
<path d="M28 14.4375H30V16.5H28V14.4375Z" fill="#1A1A1A"/>
<path d="M0 16.5H2V30.9375H0V16.5Z" fill="#1A1A1A"/>
<path d="M30 16.5H32V30.9375H30V16.5Z" fill="#1A1A1A"/>
<path d="M6 18.5625H8V20.625H6V18.5625Z" fill="#1A1A1A"/>
<path d="M10 18.5625H12V20.625H10V18.5625Z" fill="#1A1A1A"/>
<path d="M18 18.5625H28V24.75H18V18.5625Z" fill="#1A1A1A"/>
<path d="M8 20.625H10V22.6875H8V20.625Z" fill="#1A1A1A"/>
<path d="M10 20.625H12V22.6875H10V20.625Z" fill="white"/>
<path d="M12 20.625H14V22.6875H12V20.625Z" fill="#1A1A1A"/>
<path d="M20 20.625H26V22.6875H20V20.625Z" fill="white"/>
<path d="M6 22.6875H8V24.75H6V22.6875Z" fill="#1A1A1A"/>
<path d="M8 22.6875H10V24.75H8V22.6875Z" fill="white"/>
<path d="M10 22.6875H12V24.75H10V22.6875Z" fill="#1A1A1A"/>
<path d="M8 24.75H10V26.8125H8V24.75Z" fill="#1A1A1A"/>
<path d="M12 24.75H14V26.8125H12V24.75Z" fill="#1A1A1A"/>
<path d="M18 26.8125H20V28.875H18V26.8125Z" fill="#1A1A1A"/>
<path d="M22 26.8125H24V28.875H22V26.8125Z" fill="#1A1A1A"/>
<path d="M26 26.8125H28V28.875H26V26.8125Z" fill="#1A1A1A"/>
<path d="M2 30.9375H30V33H2V30.9375Z" fill="#1A1A1A"/>
</svg>
