<svg width="270" height="331" viewBox="0 0 270 331" fill="none" xmlns="http://www.w3.org/2000/svg">
<g clip-path="url(#clip0_11_15)">
<path fill-rule="evenodd" clip-rule="evenodd" d="M106.393 18.5C108.326 18.5 109.893 16.933 109.893 15C109.893 13.067 108.326 11.5 106.393 11.5C104.46 11.5 102.893 13.067 102.893 15C102.893 16.933 104.46 18.5 106.393 18.5ZM106.393 20C109.155 20 111.393 17.7614 111.393 15C111.393 12.2386 109.155 10 106.393 10C103.632 10 101.393 12.2386 101.393 15C101.393 17.7614 103.632 20 106.393 20Z" fill="black"/>
<path fill-rule="evenodd" clip-rule="evenodd" d="M103.393 23.75C101.046 23.75 99.1434 25.6528 99.1434 28V29C99.1434 29.4142 98.8077 29.75 98.3934 29.75C97.9792 29.75 97.6434 29.4142 97.6434 29V28C97.6434 24.8244 100.218 22.25 103.393 22.25H109.393C112.569 22.25 115.143 24.8244 115.143 28V29C115.143 29.4142 114.808 29.75 114.393 29.75C113.979 29.75 113.643 29.4142 113.643 29V28C113.643 25.6528 111.741 23.75 109.393 23.75H103.393Z" fill="black"/>
<path fill-rule="evenodd" clip-rule="evenodd" d="M51.8954 15L56.294 10.7847C57.3577 9.7653 59.0358 9.7653 60.0995 10.7847L64.4981 15H67.0437C67.6523 15 68.1197 15.539 68.0337 16.1414L66.5647 26.4243C66.3536 27.9022 65.0878 29 63.5948 29H52.7986C51.3057 29 50.0399 27.9022 49.8288 26.4243L48.3598 16.1414C48.2737 15.539 48.7412 15 49.3497 15H51.8954ZM57.3318 11.8677C57.8153 11.4043 58.5781 11.4043 59.0616 11.8677L62.3301 15H54.0633L57.3318 11.8677ZM49.9262 16.5L51.3137 26.2121C51.4193 26.9511 52.0521 27.5 52.7986 27.5H63.5948C64.3413 27.5 64.9742 26.9511 65.0798 26.2121L66.4672 16.5H49.9262Z" fill="black"/>
<path fill-rule="evenodd" clip-rule="evenodd" d="M54.1967 19.25C54.6109 19.25 54.9467 19.5858 54.9467 20V24C54.9467 24.4142 54.6109 24.75 54.1967 24.75C53.7825 24.75 53.4467 24.4142 53.4467 24V20C53.4467 19.5858 53.7825 19.25 54.1967 19.25Z" fill="black"/>
<path fill-rule="evenodd" clip-rule="evenodd" d="M58.1967 19.25C58.6109 19.25 58.9467 19.5858 58.9467 20V24C58.9467 24.4142 58.6109 24.75 58.1967 24.75C57.7825 24.75 57.4467 24.4142 57.4467 24V20C57.4467 19.5858 57.7825 19.25 58.1967 19.25Z" fill="black"/>
<path fill-rule="evenodd" clip-rule="evenodd" d="M62.1967 19.25C62.6109 19.25 62.9467 19.5858 62.9467 20V24C62.9467 24.4142 62.6109 24.75 62.1967 24.75C61.7825 24.75 61.4467 24.4142 61.4467 24V20C61.4467 19.5858 61.7825 19.25 62.1967 19.25Z" fill="black"/>
<path fill-rule="evenodd" clip-rule="evenodd" d="M15.8723 24.8116C17.1996 23.2436 18 21.2153 18 19C18 14.0294 13.9706 10 9 10C4.02944 10 0 14.0294 0 19C0 23.9706 4.02944 28 9 28C11.2153 28 13.2436 27.1996 14.8116 25.8723L17.4697 28.5303C17.7626 28.8232 18.2374 28.8232 18.5303 28.5303C18.8232 28.2374 18.8232 27.7626 18.5303 27.4697L15.8723 24.8116ZM16.5 19C16.5 23.1421 13.1421 26.5 9 26.5C4.85786 26.5 1.5 23.1421 1.5 19C1.5 14.8579 4.85786 11.5 9 11.5C13.1421 11.5 16.5 14.8579 16.5 19Z" fill="black"/>
<g filter="url(#filter0_b_11_15)">
<ellipse cx="68.8197" cy="7" rx="6.88525" ry="7" fill="#EA0025"/>
</g>
<path d="M66.3789 10.27C67.2255 9.59 67.8889 9.03333 68.3689 8.6C68.8489 8.16 69.2522 7.70333 69.5789 7.23C69.9122 6.75 70.0789 6.28 70.0789 5.82C70.0789 5.38667 69.9722 5.04667 69.7589 4.8C69.5522 4.54667 69.2155 4.42 68.7489 4.42C68.2955 4.42 67.9422 4.56333 67.6889 4.85C67.4422 5.13 67.3089 5.50667 67.2889 5.98H66.4089C66.4355 5.23333 66.6622 4.65667 67.0889 4.25C67.5155 3.84333 68.0655 3.64 68.7389 3.64C69.4255 3.64 69.9689 3.83 70.3689 4.21C70.7755 4.59 70.9789 5.11333 70.9789 5.78C70.9789 6.33333 70.8122 6.87333 70.4789 7.4C70.1522 7.92 69.7789 8.38 69.3589 8.78C68.9389 9.17333 68.4022 9.63333 67.7489 10.16H71.1889V10.92H66.3789V10.27Z" fill="white"/>
<circle cx="17.5" cy="67.5" r="17.5" fill="black"/>
<g clip-path="url(#clip1_11_15)">
<path d="M19.5583 73.6457L19.5424 66.8986L15.5585 66.7645L15.0837 73.4999C14.721 73.5649 14.4504 73.8707 14.4289 74.2391L13.9702 78.3996C13.9136 78.923 14.229 79.3811 14.6517 79.3954L19.5906 79.5592C20.0158 79.5711 20.3537 79.1423 20.34 78.6092L20.1764 74.4423C20.1861 74.0639 19.9279 73.7311 19.5587 73.6457L19.5583 73.6457Z" fill="white"/>
<path d="M21.2753 59.9893L14.668 59.7572C14.4037 59.7501 14.1568 59.6257 13.9935 59.4183C13.6562 58.9631 13.1286 58.6881 12.5619 58.6721C11.5282 58.6385 10.6618 59.4484 10.6258 60.482L10.5471 62.819C10.5153 63.8521 11.324 64.7172 12.357 64.7551C12.9218 64.7753 13.4642 64.5376 13.8331 64.1092C14.0094 63.9127 14.2653 63.8052 14.5288 63.8165C14.6758 63.8214 14.8147 63.8845 14.9151 63.9918C15.0154 64.0991 15.069 64.242 15.064 64.389L15.0169 65.7883L20.1476 65.9611L20.1878 64.5494C20.1922 64.403 20.2552 64.2641 20.3619 64.1643C20.4686 64.0645 20.6115 64.011 20.7578 64.0165L24.771 64.1517L24.7777 63.736C24.8082 62.7758 24.4572 61.8416 23.8005 61.1391C23.1439 60.4367 22.2354 60.0236 21.2753 59.9895L21.2753 59.9893Z" fill="white"/>
</g>
<path d="M112.736 151.415C112.662 151.144 112.517 150.896 112.316 150.697C112.115 150.498 111.865 150.354 111.591 150.281C110.574 150.005 106.504 150 106.504 150C106.504 150 102.436 149.996 101.418 150.259C101.144 150.337 100.894 150.482 100.693 150.682C100.493 150.882 100.347 151.13 100.271 151.402C100.003 152.407 100 154.494 100 154.494C100 154.494 99.9974 156.59 100.264 157.586C100.413 158.136 100.852 158.571 101.409 158.719C102.436 158.995 106.495 159 106.495 159C106.495 159 110.564 159.004 111.581 158.741C111.856 158.667 112.106 158.524 112.307 158.326C112.509 158.127 112.654 157.88 112.729 157.609C112.998 156.604 113 154.518 113 154.518C113 154.518 113.013 152.421 112.736 151.415ZM105.203 156.426L105.206 152.572L108.588 154.503L105.203 156.426Z" fill="#474747"/>
<path d="M55.9953 152.913C55.1781 152.913 54.3944 153.238 53.8165 153.816C53.2387 154.394 52.914 155.178 52.914 155.995C52.914 156.812 53.2387 157.596 53.8165 158.174C54.3944 158.751 55.1781 159.076 55.9953 159.076C56.8125 159.076 57.5963 158.751 58.1741 158.174C58.752 157.596 59.0766 156.812 59.0766 155.995C59.0766 155.178 58.752 154.394 58.1741 153.816C57.5963 153.238 56.8125 152.913 55.9953 152.913ZM55.9953 157.996C55.4644 157.996 54.9553 157.785 54.5799 157.41C54.2045 157.034 53.9936 156.525 53.9936 155.994C53.9936 155.463 54.2045 154.954 54.5799 154.579C54.9553 154.203 55.4644 153.992 55.9953 153.992C56.5262 153.992 57.0354 154.203 57.4108 154.579C57.7862 154.954 57.9971 155.463 57.9971 155.994C57.9971 156.525 57.7862 157.034 57.4108 157.41C57.0354 157.785 56.5262 157.996 55.9953 157.996Z" fill="#474747"/>
<path d="M59.1987 153.518C59.5954 153.518 59.917 153.197 59.917 152.8C59.917 152.403 59.5954 152.082 59.1987 152.082C58.8019 152.082 58.4803 152.403 58.4803 152.8C58.4803 153.197 58.8019 153.518 59.1987 153.518Z" fill="#474747"/>
<path d="M61.6821 152.07C61.5279 151.671 61.2921 151.31 60.99 151.008C60.6879 150.706 60.326 150.47 59.9276 150.316C59.4614 150.141 58.9688 150.046 58.4709 150.036C57.8292 150.008 57.6259 150 55.9987 150C54.3714 150 54.1628 150 53.5264 150.036C53.0289 150.046 52.5367 150.14 52.0711 150.316C51.6725 150.47 51.3106 150.705 51.0084 151.007C50.7063 151.309 50.4706 151.671 50.3165 152.07C50.1415 152.536 50.0471 153.029 50.0373 153.526C50.0087 154.167 50 154.371 50 155.999C50 157.626 50 157.833 50.0373 158.471C50.0473 158.969 50.1413 159.461 50.3165 159.928C50.471 160.327 50.7069 160.688 51.0092 160.99C51.3114 161.292 51.6733 161.528 52.0717 161.682C52.5365 161.864 53.0289 161.966 53.5278 161.982C54.1695 162.01 54.3727 162.019 56 162.019C57.6273 162.019 57.8359 162.019 58.4722 161.982C58.9701 161.972 59.4626 161.877 59.9289 161.703C60.3272 161.548 60.689 161.313 60.9911 161.01C61.2932 160.708 61.529 160.347 61.6835 159.948C61.8587 159.482 61.9527 158.99 61.9627 158.492C61.9913 157.851 62 157.647 62 156.019C62 154.391 62 154.185 61.9627 153.547C61.9549 153.042 61.86 152.542 61.6821 152.07ZM60.8705 158.422C60.8662 158.806 60.7961 159.186 60.6633 159.546C60.5632 159.806 60.41 160.041 60.2135 160.237C60.017 160.434 59.7816 160.587 59.5224 160.687C59.1661 160.819 58.7897 160.889 58.4096 160.894C57.7765 160.923 57.598 160.93 55.9747 160.93C54.3501 160.93 54.1841 160.93 53.5391 160.894C53.1592 160.889 52.783 160.819 52.4269 160.687C52.1668 160.587 51.9305 160.434 51.7332 160.238C51.5358 160.042 51.3819 159.806 51.2814 159.546C51.1505 159.19 51.0804 158.814 51.0742 158.434C51.0455 157.801 51.0389 157.623 51.0389 155.999C51.0389 154.375 51.0389 154.209 51.0742 153.564C51.0785 153.18 51.1486 152.8 51.2814 152.44C51.4847 151.914 51.9012 151.5 52.4269 151.299C52.7832 151.167 53.1593 151.097 53.5391 151.092C54.1728 151.063 54.3507 151.055 55.9747 151.055C57.5986 151.055 57.7652 151.055 58.4096 151.092C58.7897 151.096 59.1662 151.166 59.5224 151.299C59.7816 151.399 60.017 151.552 60.2134 151.749C60.4099 151.945 60.5631 152.18 60.6633 152.44C60.7942 152.796 60.8643 153.172 60.8705 153.552C60.8992 154.185 60.9065 154.363 60.9065 155.987C60.9065 157.611 60.9065 157.785 60.8778 158.422H60.8705V158.422Z" fill="#474747"/>
<path d="M4.89782 162V156.535H6.67481L6.93895 154.395H4.89782V153.033C4.89782 152.415 5.06363 151.992 5.91774 151.992H7V150.085C6.47342 150.026 5.94412 149.998 5.41453 150C3.84383 150 2.76542 150.995 2.76542 152.821V154.391H1V156.531H2.76928V162H4.89782Z" fill="#474747"/>
<circle opacity="0.2" cx="13" cy="113" r="13" fill="white"/>
<path fill-rule="evenodd" clip-rule="evenodd" d="M10.3245 110.083L12.8903 107.624C13.5108 107.03 14.4897 107.03 15.1102 107.624L17.676 110.083H19.161C19.516 110.083 19.7887 110.398 19.7385 110.749L18.8816 116.748C18.7584 117.61 18.02 118.25 17.1491 118.25H10.8514C9.98046 118.25 9.2421 117.61 9.11894 116.748L8.26203 110.749C8.21183 110.398 8.48452 110.083 8.83951 110.083H10.3245ZM13.4957 108.256C13.7778 107.986 14.2227 107.986 14.5048 108.256L16.4114 110.083H11.5891L13.4957 108.256ZM9.1758 110.958L9.98514 116.624C10.0467 117.055 10.4159 117.375 10.8514 117.375H17.1491C17.5846 117.375 17.9538 117.055 18.0154 116.624L18.8247 110.958H9.1758Z" fill="white"/>
<path fill-rule="evenodd" clip-rule="evenodd" d="M11.6669 112.562C11.9085 112.562 12.1044 112.758 12.1044 113V115.333C12.1044 115.575 11.9085 115.771 11.6669 115.771C11.4253 115.771 11.2294 115.575 11.2294 115.333V113C11.2294 112.758 11.4253 112.562 11.6669 112.562Z" fill="white"/>
<path fill-rule="evenodd" clip-rule="evenodd" d="M14.0002 112.562C14.2419 112.562 14.4377 112.758 14.4377 113V115.333C14.4377 115.575 14.2419 115.771 14.0002 115.771C13.7586 115.771 13.5627 115.575 13.5627 115.333V113C13.5627 112.758 13.7586 112.562 14.0002 112.562Z" fill="white"/>
<path fill-rule="evenodd" clip-rule="evenodd" d="M16.3336 112.562C16.5752 112.562 16.7711 112.758 16.7711 113V115.333C16.7711 115.575 16.5752 115.771 16.3336 115.771C16.092 115.771 15.8961 115.575 15.8961 115.333V113C15.8961 112.758 16.092 112.562 16.3336 112.562Z" fill="white"/>
</g>
<defs>
<filter id="filter0_b_11_15" x="57.9344" y="-4" width="21.7705" height="22" filterUnits="userSpaceOnUse" color-interpolation-filters="sRGB">
<feFlood flood-opacity="0" result="BackgroundImageFix"/>
<feGaussianBlur in="BackgroundImage" stdDeviation="2"/>
<feComposite in2="SourceAlpha" operator="in" result="effect1_backgroundBlur_11_15"/>
<feBlend mode="normal" in="SourceGraphic" in2="effect1_backgroundBlur_11_15" result="shape"/>
</filter>
<clipPath id="clip0_11_15">
<rect width="270" height="331" fill="white"/>
</clipPath>
<clipPath id="clip1_11_15">
<rect width="22" height="22" fill="white" transform="translate(17.5236 52.4524) rotate(46.9289)"/>
</clipPath>
</defs>
</svg>
